<svg width="204" height="138" viewBox="0 0 204 138" fill="none" xmlns="http://www.w3.org/2000/svg">
<g opacity="0.6">
<mask id="path-1-outside-1_2_20" maskUnits="userSpaceOnUse" x="0" y="0" width="204" height="138" fill="black">
<rect fill="white" width="204" height="138"/>
<path d="M28.744 21.384L29.56 19.512C32.344 19.576 34.632 20.008 36.424 20.808C38.248 21.576 39.608 22.664 40.504 24.072C41.4 25.448 41.848 27.048 41.848 28.872C41.848 30.824 41.4 32.568 40.504 34.104C39.608 35.608 38.264 36.808 36.472 37.704C34.712 38.568 32.504 39 29.848 39H3.256L6.04 20.52L3.256 3H28.888C32.216 3 34.808 3.784 36.664 5.352C38.52 6.888 39.448 9.032 39.448 11.784C39.448 13.288 39.096 14.728 38.392 16.104C37.688 17.48 36.552 18.648 34.984 19.608C33.448 20.536 31.368 21.128 28.744 21.384ZM13.096 36.696L9.256 32.04H27.16C28.6 32.04 29.72 31.688 30.52 30.984C31.32 30.28 31.72 29.304 31.72 28.056C31.72 26.808 31.288 25.816 30.424 25.08C29.56 24.312 28.28 23.928 26.584 23.928H11.8V17.112H25.24C26.392 17.112 27.352 16.776 28.12 16.104C28.92 15.4 29.32 14.456 29.32 13.272C29.32 12.312 28.984 11.528 28.312 10.92C27.64 10.28 26.68 9.96 25.432 9.96H9.304L13.096 5.304L15.544 20.52L13.096 36.696ZM56.671 3V34.584L52.207 30.168H79.135V39H46.735V3H56.671ZM90.3993 32.088V24.072H115.215V32.088H90.3993ZM109.551 3L125.919 39H115.311L101.583 7.224H104.463L90.6873 39H80.0793L96.4473 3H109.551ZM125.916 27.192H136.044C136.204 28.184 136.668 29.048 137.436 29.784C138.204 30.52 139.228 31.096 140.508 31.512C141.82 31.896 143.356 32.088 145.116 32.088C147.548 32.088 149.468 31.784 150.876 31.176C152.284 30.536 152.988 29.608 152.988 28.392C152.988 27.464 152.588 26.744 151.788 26.232C150.988 25.72 149.452 25.352 147.18 25.128L140.46 24.504C135.5 24.056 131.9 22.936 129.66 21.144C127.42 19.32 126.3 16.872 126.3 13.8C126.3 11.304 127.02 9.192 128.46 7.464C129.932 5.736 131.98 4.44 134.604 3.576C137.26 2.68 140.348 2.232 143.868 2.232C147.324 2.232 150.396 2.728 153.084 3.72C155.772 4.68 157.9 6.056 159.468 7.848C161.068 9.64 161.932 11.72 162.06 14.088H151.98C151.852 13.224 151.436 12.488 150.732 11.88C150.06 11.24 149.132 10.76 147.948 10.44C146.764 10.088 145.34 9.912 143.676 9.912C141.436 9.912 139.66 10.216 138.348 10.824C137.036 11.4 136.38 12.264 136.38 13.416C136.38 14.248 136.764 14.92 137.532 15.432C138.332 15.944 139.756 16.296 141.804 16.488L148.956 17.208C152.38 17.528 155.116 18.088 157.164 18.888C159.212 19.656 160.7 20.728 161.628 22.104C162.556 23.48 163.02 25.192 163.02 27.24C163.02 29.768 162.268 31.976 160.764 33.864C159.26 35.72 157.148 37.176 154.428 38.232C151.708 39.256 148.54 39.768 144.924 39.768C141.212 39.768 137.932 39.256 135.084 38.232C132.268 37.176 130.06 35.704 128.46 33.816C126.86 31.896 126.012 29.688 125.916 27.192ZM178.015 7.368H187.999V39H178.015V7.368ZM164.287 3H201.727V11.832H164.287V3ZM28.744 69.384L29.56 67.512C32.344 67.576 34.632 68.008 36.424 68.808C38.248 69.576 39.608 70.664 40.504 72.072C41.4 73.448 41.848 75.048 41.848 76.872C41.848 78.824 41.4 80.568 40.504 82.104C39.608 83.608 38.264 84.808 36.472 85.704C34.712 86.568 32.504 87 29.848 87H3.256L6.04 68.52L3.256 51H28.888C32.216 51 34.808 51.784 36.664 53.352C38.52 54.888 39.448 57.032 39.448 59.784C39.448 61.288 39.096 62.728 38.392 64.104C37.688 65.48 36.552 66.648 34.984 67.608C33.448 68.536 31.368 69.128 28.744 69.384ZM13.096 84.696L9.256 80.04H27.16C28.6 80.04 29.72 79.688 30.52 78.984C31.32 78.28 31.72 77.304 31.72 76.056C31.72 74.808 31.288 73.816 30.424 73.08C29.56 72.312 28.28 71.928 26.584 71.928H11.8V65.112H25.24C26.392 65.112 27.352 64.776 28.12 64.104C28.92 63.4 29.32 62.456 29.32 61.272C29.32 60.312 28.984 59.528 28.312 58.92C27.64 58.28 26.68 57.96 25.432 57.96H9.304L13.096 53.304L15.544 68.52L13.096 84.696ZM77.503 65.4V72.6H51.151V65.4H77.503ZM57.919 69L55.567 83.448L51.535 78.936H79.087V87H45.631L48.367 69L45.631 51H78.847V59.064H51.535L55.567 54.552L57.919 69ZM91.1961 80.088V72.072H116.012V80.088H91.1961ZM110.348 51L126.716 87H116.108L102.38 55.224H105.26L91.4841 87H80.8761L97.2441 51H110.348ZM135.64 55.368H145.624V87H135.64V55.368ZM121.912 51H159.352V59.832H121.912V51ZM37.72 128.04L34.648 128.664V99H44.296V135H31.768L10.984 105.384L14.008 104.76V135H4.36V99H17.224L37.72 128.04ZM70.7766 135.768C66.5206 135.768 62.7766 134.984 59.5446 133.416C56.3446 131.848 53.8486 129.656 52.0566 126.84C50.2966 124.024 49.4166 120.744 49.4166 117C49.4166 113.256 50.2966 109.976 52.0566 107.16C53.8486 104.344 56.3446 102.152 59.5446 100.584C62.7766 99.016 66.5206 98.232 70.7766 98.232C75.0646 98.232 78.8086 99.016 82.0086 100.584C85.2086 102.152 87.7046 104.344 89.4966 107.16C91.2886 109.976 92.1846 113.256 92.1846 117C92.1846 120.744 91.2886 124.024 89.4966 126.84C87.7046 129.656 85.2086 131.848 82.0086 133.416C78.8086 134.984 75.0646 135.768 70.7766 135.768ZM70.7766 126.888C73.1126 126.888 75.1286 126.488 76.8246 125.688C78.5206 124.888 79.8166 123.752 80.7126 122.28C81.6406 120.808 82.1046 119.048 82.1046 117C82.1046 114.952 81.6406 113.192 80.7126 111.72C79.8166 110.248 78.5206 109.112 76.8246 108.312C75.1286 107.512 73.1126 107.112 70.7766 107.112C68.4726 107.112 66.4726 107.512 64.7766 108.312C63.0806 109.112 61.7686 110.248 60.8406 111.72C59.9126 113.192 59.4486 114.952 59.4486 117C59.4486 119.048 59.9126 120.808 60.8406 122.28C61.7686 123.752 63.0806 124.888 64.7766 125.688C66.4726 126.488 68.4726 126.888 70.7766 126.888ZM97.3131 99H107.249V135H97.3131V99ZM112.322 123.192H122.45C122.61 124.184 123.074 125.048 123.842 125.784C124.61 126.52 125.634 127.096 126.914 127.512C128.226 127.896 129.762 128.088 131.522 128.088C133.954 128.088 135.874 127.784 137.282 127.176C138.69 126.536 139.394 125.608 139.394 124.392C139.394 123.464 138.994 122.744 138.194 122.232C137.394 121.72 135.858 121.352 133.586 121.128L126.866 120.504C121.906 120.056 118.306 118.936 116.066 117.144C113.826 115.32 112.706 112.872 112.706 109.8C112.706 107.304 113.426 105.192 114.866 103.464C116.338 101.736 118.386 100.44 121.01 99.576C123.666 98.68 126.754 98.232 130.274 98.232C133.73 98.232 136.802 98.728 139.49 99.72C142.178 100.68 144.306 102.056 145.874 103.848C147.474 105.64 148.338 107.72 148.466 110.088H138.386C138.258 109.224 137.842 108.488 137.138 107.88C136.466 107.24 135.538 106.76 134.354 106.44C133.17 106.088 131.746 105.912 130.082 105.912C127.842 105.912 126.066 106.216 124.754 106.824C123.442 107.4 122.786 108.264 122.786 109.416C122.786 110.248 123.17 110.92 123.938 111.432C124.738 111.944 126.162 112.296 128.21 112.488L135.362 113.208C138.786 113.528 141.522 114.088 143.57 114.888C145.618 115.656 147.106 116.728 148.034 118.104C148.962 119.48 149.426 121.192 149.426 123.24C149.426 125.768 148.674 127.976 147.17 129.864C145.666 131.72 143.554 133.176 140.834 134.232C138.114 135.256 134.946 135.768 131.33 135.768C127.618 135.768 124.338 135.256 121.49 134.232C118.674 133.176 116.466 131.704 114.866 129.816C113.266 127.896 112.418 125.688 112.322 123.192ZM185.034 113.4V120.6H158.682V113.4H185.034ZM165.45 117L163.098 131.448L159.066 126.936H186.618V135H153.162L155.898 117L153.162 99H186.378V107.064H159.066L163.098 102.552L165.45 117Z"/>
</mask>
<path d="M28.744 21.384L26.9106 20.5848L25.5505 23.7051L28.9382 23.3745L28.744 21.384ZM29.56 19.512L29.606 17.5125L28.2633 17.4817L27.7266 18.7128L29.56 19.512ZM36.424 20.808L35.6087 22.6343L35.6282 22.643L35.6479 22.6513L36.424 20.808ZM40.504 24.072L38.8167 25.1458L38.8223 25.1546L38.828 25.1633L40.504 24.072ZM40.504 34.104L42.2222 35.1276L42.2269 35.1197L42.2316 35.1117L40.504 34.104ZM36.472 37.704L37.3533 39.4993L37.3599 39.4961L37.3664 39.4929L36.472 37.704ZM3.256 39L1.27832 38.7021L0.932134 41H3.256V39ZM6.04 20.52L8.01768 20.8179L8.0638 20.5118L8.01522 20.2061L6.04 20.52ZM3.256 3V0.999997H0.913099L1.28078 3.31387L3.256 3ZM36.664 5.352L35.3733 6.87977L35.3811 6.88632L35.3889 6.89279L36.664 5.352ZM34.984 19.608L36.0182 21.3199L36.0283 21.3137L34.984 19.608ZM13.096 36.696L11.5531 37.9685L14.4032 41.4243L15.0735 36.9953L13.096 36.696ZM9.256 32.04V30.04H5.01407L7.71306 33.3125L9.256 32.04ZM30.52 30.984L29.1987 29.4826L29.1987 29.4826L30.52 30.984ZM30.424 25.08L29.0953 26.5748L29.111 26.5888L29.1271 26.6025L30.424 25.08ZM11.8 23.928H9.8V25.928H11.8V23.928ZM11.8 17.112V15.112H9.8V17.112H11.8ZM28.12 16.104L29.437 17.6092L29.4413 17.6054L28.12 16.104ZM28.312 10.92L26.9327 12.3683L26.9512 12.3859L26.9702 12.4031L28.312 10.92ZM9.304 9.96L7.75324 8.69701L5.09575 11.96H9.304V9.96ZM13.096 5.304L15.0706 4.98632L14.3621 0.582352L11.5452 4.04101L13.096 5.304ZM15.544 20.52L17.5215 20.8193L17.5682 20.5106L17.5186 20.2023L15.544 20.52ZM30.5774 22.1832L31.3934 20.3112L27.7266 18.7128L26.9106 20.5848L30.5774 22.1832ZM29.514 21.5115C32.1355 21.5717 34.1381 21.9778 35.6087 22.6343L37.2393 18.9817C35.1259 18.0382 32.5525 17.5803 29.606 17.5125L29.514 21.5115ZM35.6479 22.6513C37.1682 23.2914 38.1772 24.1409 38.8167 25.1458L42.1913 22.9982C41.0388 21.1871 39.3278 19.8606 37.2001 18.9647L35.6479 22.6513ZM38.828 25.1633C39.4895 26.1793 39.848 27.391 39.848 28.872H43.848C43.848 26.705 43.3105 24.7167 42.18 22.9807L38.828 25.1633ZM39.848 28.872C39.848 30.5055 39.4769 31.8955 38.7764 33.0963L42.2316 35.1117C43.3231 33.2405 43.848 31.1425 43.848 28.872H39.848ZM38.7858 33.0804C38.1127 34.2103 37.0781 35.1649 35.5776 35.9151L37.3664 39.4929C39.4499 38.4511 41.1033 37.0057 42.2222 35.1276L38.7858 33.0804ZM35.5907 35.9087C34.1844 36.599 32.3013 37 29.848 37V41C32.7067 41 35.2396 40.537 37.3533 39.4993L35.5907 35.9087ZM29.848 37H3.256V41H29.848V37ZM5.23368 39.2979L8.01768 20.8179L4.06232 20.2221L1.27832 38.7021L5.23368 39.2979ZM8.01522 20.2061L5.23122 2.68613L1.28078 3.31387L4.06478 20.8339L8.01522 20.2061ZM3.256 5H28.888V0.999997H3.256V5ZM28.888 5C31.9179 5 33.9922 5.713 35.3733 6.87977L37.9547 3.82423C35.6238 1.855 32.5141 0.999997 28.888 0.999997V5ZM35.3889 6.89279C36.7172 7.99209 37.448 9.53283 37.448 11.784H41.448C41.448 8.53117 40.3228 5.7839 37.9391 3.81121L35.3889 6.89279ZM37.448 11.784C37.448 12.9623 37.1754 14.0909 36.6115 15.193L40.1725 17.0149C41.0166 15.3651 41.448 13.6137 41.448 11.784H37.448ZM36.6115 15.193C36.1045 16.184 35.2539 17.0977 33.9397 17.9023L36.0283 21.3137C37.8501 20.1983 39.2715 18.776 40.1725 17.0149L36.6115 15.193ZM33.9498 17.8962C32.7607 18.6146 31.0048 19.1539 28.5498 19.3934L28.9382 23.3745C31.7312 23.1021 34.1353 22.4574 36.0182 21.3198L33.9498 17.8962ZM14.6389 35.4235L10.7989 30.7675L7.71306 33.3125L11.5531 37.9685L14.6389 35.4235ZM9.256 34.04H27.16V30.04H9.256V34.04ZM27.16 34.04C28.914 34.04 30.5647 33.6088 31.8413 32.4854L29.1987 29.4826C28.8753 29.7672 28.286 30.04 27.16 30.04V34.04ZM31.8413 32.4854C33.1479 31.3356 33.72 29.7704 33.72 28.056H29.72C29.72 28.8376 29.4921 29.2244 29.1987 29.4826L31.8413 32.4854ZM33.72 28.056C33.72 26.2878 33.0788 24.7142 31.7209 23.5575L29.1271 26.6025C29.4972 26.9178 29.72 27.3281 29.72 28.056H33.72ZM31.7527 23.5852C30.384 22.3685 28.5456 21.928 26.584 21.928V25.928C28.0144 25.928 28.736 26.2555 29.0953 26.5748L31.7527 23.5852ZM26.584 21.928H11.8V25.928H26.584V21.928ZM13.8 23.928V17.112H9.8V23.928H13.8ZM11.8 19.112H25.24V15.112H11.8V19.112ZM25.24 19.112C26.8097 19.112 28.2572 18.6415 29.437 17.6092L26.803 14.5988C26.4468 14.9105 25.9743 15.112 25.24 15.112V19.112ZM29.4413 17.6054C30.7236 16.477 31.32 14.9593 31.32 13.272H27.32C27.32 13.9527 27.1164 14.323 26.7987 14.6026L29.4413 17.6054ZM31.32 13.272C31.32 11.7847 30.7722 10.4488 29.6538 9.43693L26.9702 12.4031C27.1958 12.6072 27.32 12.8393 27.32 13.272H31.32ZM29.6913 9.47172C28.5343 8.36978 27.0125 7.96 25.432 7.96V11.96C26.3475 11.96 26.7457 12.1902 26.9327 12.3683L29.6913 9.47172ZM25.432 7.96H9.304V11.96H25.432V7.96ZM10.8548 11.223L14.6468 6.56699L11.5452 4.04101L7.75324 8.69701L10.8548 11.223ZM11.1214 5.62168L13.5694 20.8377L17.5186 20.2023L15.0706 4.98632L11.1214 5.62168ZM13.5665 20.2207L11.1185 36.3967L15.0735 36.9953L17.5215 20.8193L13.5665 20.2207ZM56.671 3H58.671V0.999997H56.671V3ZM56.671 34.584L55.2645 36.0058L58.671 39.3758V34.584H56.671ZM52.207 30.168V28.168H47.3414L50.8005 31.5898L52.207 30.168ZM79.135 30.168H81.135V28.168H79.135V30.168ZM79.135 39V41H81.135V39H79.135ZM46.735 39H44.735V41H46.735V39ZM46.735 3V0.999997H44.735V3H46.735ZM54.671 3V34.584H58.671V3H54.671ZM58.0775 33.1622L53.6135 28.7462L50.8005 31.5898L55.2645 36.0058L58.0775 33.1622ZM52.207 32.168H79.135V28.168H52.207V32.168ZM77.135 30.168V39H81.135V30.168H77.135ZM79.135 37H46.735V41H79.135V37ZM48.735 39V3H44.735V39H48.735ZM46.735 5H56.671V0.999997H46.735V5ZM90.3993 32.088H88.3993V34.088H90.3993V32.088ZM90.3993 24.072V22.072H88.3993V24.072H90.3993ZM115.215 24.072H117.215V22.072H115.215V24.072ZM115.215 32.088V34.088H117.215V32.088H115.215ZM109.551 3L111.372 2.17221L110.839 0.999997H109.551V3ZM125.919 39V41H129.026L127.74 38.1722L125.919 39ZM115.311 39L113.475 39.7932L113.997 41H115.311V39ZM101.583 7.224V5.224H98.5405L99.7473 8.01719L101.583 7.224ZM104.463 7.224L106.298 8.01952L107.51 5.224H104.463V7.224ZM90.6872 39V41H92L92.5222 39.7955L90.6872 39ZM80.0792 39L78.2586 38.1722L76.9729 41H80.0792V39ZM96.4473 3V0.999997H95.1596L94.6266 2.17221L96.4473 3ZM92.3993 32.088V24.072H88.3993V32.088H92.3993ZM90.3993 26.072H115.215V22.072H90.3993V26.072ZM113.215 24.072V32.088H117.215V24.072H113.215ZM115.215 30.088H90.3993V34.088H115.215V30.088ZM107.731 3.82779L124.099 39.8278L127.74 38.1722L111.372 2.17221L107.731 3.82779ZM125.919 37H115.311V41H125.919V37ZM117.147 38.2068L103.419 6.43081L99.7473 8.01719L113.475 39.7932L117.147 38.2068ZM101.583 9.224H104.463V5.224H101.583V9.224ZM102.628 6.42847L88.8523 38.2045L92.5222 39.7955L106.298 8.01952L102.628 6.42847ZM90.6872 37H80.0792V41H90.6872V37ZM81.8999 39.8278L98.2679 3.82779L94.6266 2.17221L78.2586 38.1722L81.8999 39.8278ZM96.4473 5H109.551V0.999997H96.4473V5ZM125.915 27.192V25.192H123.837L123.917 27.2689L125.915 27.192ZM136.044 27.192L138.018 26.8735L137.747 25.192H136.044V27.192ZM137.436 29.784L138.819 28.34L137.436 29.784ZM140.508 31.512L139.889 33.4141L139.917 33.4232L139.946 33.4315L140.508 31.512ZM150.876 31.176L151.668 33.0121L151.686 33.0046L151.703 32.9967L150.876 31.176ZM151.788 26.232L152.866 24.5475L151.788 26.232ZM147.18 25.128L147.376 23.1376L147.364 23.1366L147.18 25.128ZM140.46 24.504L140.644 22.5126L140.639 22.5121L140.46 24.504ZM129.66 21.144L128.397 22.6949L128.403 22.7003L128.41 22.7057L129.66 21.144ZM128.46 7.464L126.937 6.16707L126.93 6.17531L126.923 6.18363L128.46 7.464ZM134.604 3.576L135.229 5.47567L135.236 5.47339L135.243 5.47107L134.604 3.576ZM153.083 3.72L152.391 5.5963L152.401 5.59995L152.411 5.60348L153.083 3.72ZM159.467 7.848L157.962 9.16501L157.969 9.17255L157.976 9.18003L159.467 7.848ZM162.06 14.088V16.088H164.171L164.057 13.98L162.06 14.088ZM151.98 14.088L150.001 14.3811L150.254 16.088H151.98V14.088ZM150.732 11.88L149.352 13.3283L149.387 13.3618L149.424 13.3936L150.732 11.88ZM147.947 10.44L147.378 12.3571L147.402 12.3642L147.426 12.3707L147.947 10.44ZM138.348 10.824L139.151 12.6553L139.17 12.6471L139.188 12.6386L138.348 10.824ZM137.531 15.432L136.422 17.0961L136.438 17.1065L136.453 17.1165L137.531 15.432ZM141.803 16.488L142.004 14.498L141.99 14.4967L141.803 16.488ZM148.956 17.208L148.755 19.1979L148.762 19.1987L148.769 19.1993L148.956 17.208ZM157.163 18.888L156.436 20.7509L156.449 20.7559L156.461 20.7607L157.163 18.888ZM161.628 22.104L163.286 20.9857L161.628 22.104ZM160.764 33.864L162.317 35.1232L162.323 35.1167L162.328 35.1102L160.764 33.864ZM154.428 38.232L155.132 40.1038L155.142 40.1001L155.151 40.0964L154.428 38.232ZM135.083 38.232L134.381 40.1047L134.394 40.1094L134.407 40.114L135.083 38.232ZM128.46 33.816L126.923 35.0964L126.928 35.1027L126.934 35.109L128.46 33.816ZM125.915 29.192H136.044V25.192H125.915V29.192ZM134.069 27.5105C134.302 28.958 134.989 30.2099 136.052 31.228L138.819 28.34C138.346 27.8861 138.105 27.41 138.018 26.8735L134.069 27.5105ZM136.052 31.228C137.087 32.2201 138.397 32.9289 139.889 33.4141L141.126 29.6099C140.058 29.2631 139.32 28.8199 138.819 28.34L136.052 31.228ZM139.946 33.4315C141.484 33.8817 143.217 34.088 145.115 34.088V30.088C143.494 30.088 142.155 29.9103 141.069 29.5925L139.946 33.4315ZM145.115 34.088C147.678 34.088 149.906 33.773 151.668 33.0121L150.083 29.3399C149.029 29.795 147.417 30.088 145.115 30.088V34.088ZM151.703 32.9967C152.614 32.5828 153.445 32.0096 154.053 31.2088C154.681 30.381 154.988 29.4159 154.988 28.392H150.988C150.988 28.5841 150.942 28.691 150.866 28.7912C150.77 28.9184 150.545 29.1292 150.048 29.3553L151.703 32.9967ZM154.988 28.392C154.988 26.7628 154.224 25.4166 152.866 24.5475L150.709 27.9165C150.873 28.0215 150.923 28.0985 150.939 28.1273C150.954 28.1541 150.988 28.2241 150.988 28.392H154.988ZM152.866 24.5475C152.194 24.1175 151.363 23.8333 150.501 23.627C149.615 23.4147 148.566 23.255 147.376 23.1376L146.983 27.1183C148.065 27.225 148.92 27.3613 149.57 27.517C150.244 27.6787 150.581 27.8345 150.709 27.9165L152.866 24.5475ZM147.364 23.1366L140.644 22.5126L140.275 26.4954L146.995 27.1194L147.364 23.1366ZM140.639 22.5121C135.817 22.0765 132.69 21.0075 130.909 19.5823L128.41 22.7057C131.109 24.8645 135.182 26.0355 140.28 26.4959L140.639 22.5121ZM130.922 19.5931C129.182 18.1758 128.299 16.3143 128.299 13.8H124.299C124.299 17.4297 125.657 20.4642 128.397 22.6949L130.922 19.5931ZM128.299 13.8C128.299 11.7171 128.889 10.073 129.996 8.74437L126.923 6.18363C125.15 8.31099 124.299 10.8909 124.299 13.8H128.299ZM129.982 8.76093C131.169 7.3674 132.878 6.24982 135.229 5.47567L133.978 1.67633C131.081 2.63018 128.694 4.10459 126.937 6.16707L129.982 8.76093ZM135.243 5.47107C137.648 4.65972 140.512 4.232 143.868 4.232V0.231998C140.183 0.231998 136.871 0.700278 133.964 1.68093L135.243 5.47107ZM143.868 4.232C147.135 4.232 149.965 4.70104 152.391 5.5963L153.776 1.84369C150.826 0.754953 147.512 0.231998 143.868 0.231998V4.232ZM152.411 5.60348C154.841 6.47151 156.66 7.67627 157.962 9.16501L160.973 6.53099C159.139 4.43573 156.702 2.88849 153.756 1.83652L152.411 5.60348ZM157.976 9.18003C159.277 10.638 159.959 12.2879 160.062 14.1959L164.057 13.98C163.904 11.1521 162.858 8.64198 160.959 6.51597L157.976 9.18003ZM162.06 12.088H151.98V16.088H162.06V12.088ZM153.958 13.7949C153.755 12.4244 153.08 11.2656 152.039 10.3664L149.424 13.3936C149.791 13.7104 149.948 14.0236 150.001 14.3811L153.958 13.7949ZM152.111 10.4317C151.132 9.49996 149.875 8.88921 148.469 8.50927L147.426 12.3707C148.388 12.6308 148.987 12.98 149.352 13.3283L152.111 10.4317ZM148.517 8.52293C147.097 8.10063 145.47 7.912 143.676 7.912V11.912C145.209 11.912 146.43 12.0754 147.378 12.3571L148.517 8.52293ZM143.676 7.912C141.289 7.912 139.187 8.23066 137.507 9.00938L139.188 12.6386C140.132 12.2013 141.582 11.912 143.676 11.912V7.912ZM137.544 8.99271C136.673 9.37507 135.868 9.91834 135.279 10.6946C134.67 11.4968 134.38 12.4321 134.38 13.416H138.38C138.38 13.2479 138.417 13.1752 138.464 13.1134C138.531 13.0257 138.71 12.8489 139.151 12.6553L137.544 8.99271ZM134.38 13.416C134.38 14.9984 135.169 16.2609 136.422 17.0961L138.641 13.7679C138.466 13.6512 138.415 13.571 138.404 13.5517C138.398 13.5405 138.38 13.5109 138.38 13.416H134.38ZM136.453 17.1165C137.69 17.9077 139.539 18.2845 141.617 18.4793L141.99 14.4967C139.972 14.3075 138.973 13.9803 138.61 13.7475L136.453 17.1165ZM141.603 18.4779L148.755 19.1979L149.156 15.2181L142.004 14.4981L141.603 18.4779ZM148.769 19.1993C152.1 19.5106 154.63 20.0457 156.436 20.7509L157.891 17.0251C155.601 16.1303 152.659 15.5454 149.142 15.2167L148.769 19.1993ZM156.461 20.7607C158.243 21.4287 159.338 22.2857 159.969 23.2223L163.286 20.9857C162.061 19.1703 160.18 17.8833 157.866 17.0153L156.461 20.7607ZM159.969 23.2223C160.627 24.1978 161.02 25.4966 161.02 27.24H165.02C165.02 24.8874 164.484 22.7622 163.286 20.9857L159.969 23.2223ZM161.02 27.24C161.02 29.3384 160.407 31.1016 159.199 32.6178L162.328 35.1102C164.128 32.8504 165.02 30.1976 165.02 27.24H161.02ZM159.21 32.6048C157.969 34.1363 156.171 35.4099 153.704 36.3676L155.151 40.0964C158.124 38.9421 160.55 37.3037 162.317 35.1232L159.21 32.6048ZM153.723 36.3602C151.276 37.2816 148.355 37.768 144.924 37.768V41.768C148.724 41.768 152.139 41.2304 155.132 40.1038L153.723 36.3602ZM144.924 37.768C141.392 37.768 138.348 37.2805 135.76 36.35L134.407 40.114C137.515 41.2315 141.031 41.768 144.924 41.768V37.768ZM135.786 36.3593C133.221 35.3975 131.322 34.1001 129.985 32.523L126.934 35.109C128.797 37.3079 131.314 38.9545 134.381 40.1047L135.786 36.3593ZM129.996 32.5356C128.678 30.9546 127.993 29.1697 127.914 27.1151L123.917 27.2689C124.03 30.2063 125.041 32.8374 126.923 35.0964L129.996 32.5356ZM178.015 7.368V5.368H176.015V7.368H178.015ZM187.999 7.368H189.999V5.368H187.999V7.368ZM187.999 39V41H189.999V39H187.999ZM178.015 39H176.015V41H178.015V39ZM164.287 3V0.999997H162.287V3H164.287ZM201.727 3H203.727V0.999997H201.727V3ZM201.727 11.832V13.832H203.727V11.832H201.727ZM164.287 11.832H162.287V13.832H164.287V11.832ZM178.015 9.368H187.999V5.368H178.015V9.368ZM185.999 7.368V39H189.999V7.368H185.999ZM187.999 37H178.015V41H187.999V37ZM180.015 39V7.368H176.015V39H180.015ZM164.287 5H201.727V0.999997H164.287V5ZM199.727 3V11.832H203.727V3H199.727ZM201.727 9.832H164.287V13.832H201.727V9.832ZM166.287 11.832V3H162.287V11.832H166.287ZM28.744 69.384L26.9106 68.5848L25.5505 71.7051L28.9382 71.3745L28.744 69.384ZM29.56 67.512L29.606 65.5125L28.2633 65.4817L27.7266 66.7128L29.56 67.512ZM36.424 68.808L35.6087 70.6343L35.6282 70.643L35.6479 70.6513L36.424 68.808ZM40.504 72.072L38.8167 73.1458L38.8223 73.1546L38.828 73.1633L40.504 72.072ZM40.504 82.104L42.2222 83.1276L42.2269 83.1197L42.2316 83.1117L40.504 82.104ZM36.472 85.704L37.3533 87.4993L37.3599 87.4961L37.3664 87.4929L36.472 85.704ZM3.256 87L1.27832 86.7021L0.932134 89H3.256V87ZM6.04 68.52L8.01768 68.8179L8.0638 68.5118L8.01522 68.2061L6.04 68.52ZM3.256 51V49H0.913099L1.28078 51.3139L3.256 51ZM36.664 53.352L35.3733 54.8798L35.3811 54.8863L35.3889 54.8928L36.664 53.352ZM34.984 67.608L36.0182 69.3199L36.0283 69.3137L34.984 67.608ZM13.096 84.696L11.5531 85.9685L14.4032 89.4243L15.0735 84.9953L13.096 84.696ZM9.256 80.04V78.04H5.01407L7.71306 81.3125L9.256 80.04ZM30.52 78.984L29.1987 77.4826H29.1987L30.52 78.984ZM30.424 73.08L29.0953 74.5748L29.111 74.5888L29.1271 74.6025L30.424 73.08ZM11.8 71.928H9.8V73.928H11.8V71.928ZM11.8 65.112V63.112H9.8V65.112H11.8ZM28.12 64.104L29.437 65.6092L29.4413 65.6054L28.12 64.104ZM28.312 58.92L26.9327 60.3683L26.9512 60.3859L26.9702 60.4031L28.312 58.92ZM9.304 57.96L7.75324 56.697L5.09575 59.96H9.304V57.96ZM13.096 53.304L15.0706 52.9863L14.3621 48.5824L11.5452 52.041L13.096 53.304ZM15.544 68.52L17.5215 68.8193L17.5682 68.5106L17.5186 68.2023L15.544 68.52ZM30.5774 70.1832L31.3934 68.3112L27.7266 66.7128L26.9106 68.5848L30.5774 70.1832ZM29.514 69.5115C32.1355 69.5717 34.1381 69.9778 35.6087 70.6343L37.2393 66.9817C35.1259 66.0382 32.5525 65.5803 29.606 65.5125L29.514 69.5115ZM35.6479 70.6513C37.1682 71.2914 38.1772 72.1409 38.8167 73.1458L42.1913 70.9982C41.0388 69.1871 39.3278 67.8606 37.2001 66.9647L35.6479 70.6513ZM38.828 73.1633C39.4895 74.1793 39.848 75.391 39.848 76.872H43.848C43.848 74.705 43.3105 72.7168 42.18 70.9807L38.828 73.1633ZM39.848 76.872C39.848 78.5055 39.4769 79.8955 38.7764 81.0963L42.2316 83.1117C43.3231 81.2405 43.848 79.1425 43.848 76.872H39.848ZM38.7858 81.0804C38.1127 82.2103 37.0781 83.1649 35.5776 83.9151L37.3664 87.4929C39.4499 86.4511 41.1033 85.0057 42.2222 83.1276L38.7858 81.0804ZM35.5907 83.9087C34.1844 84.599 32.3013 85 29.848 85V89C32.7067 89 35.2396 88.537 37.3533 87.4993L35.5907 83.9087ZM29.848 85H3.256V89H29.848V85ZM5.23368 87.2979L8.01768 68.8179L4.06232 68.2221L1.27832 86.7021L5.23368 87.2979ZM8.01522 68.2061L5.23122 50.6861L1.28078 51.3139L4.06478 68.8339L8.01522 68.2061ZM3.256 53H28.888V49H3.256V53ZM28.888 53C31.9179 53 33.9922 53.713 35.3733 54.8798L37.9547 51.8242C35.6238 49.855 32.5141 49 28.888 49V53ZM35.3889 54.8928C36.7172 55.9921 37.448 57.5328 37.448 59.784H41.448C41.448 56.5312 40.3228 53.7839 37.9391 51.8112L35.3889 54.8928ZM37.448 59.784C37.448 60.9623 37.1754 62.0909 36.6115 63.193L40.1725 65.015C41.0166 63.3651 41.448 61.6137 41.448 59.784H37.448ZM36.6115 63.193C36.1045 64.184 35.2539 65.0977 33.9397 65.9023L36.0283 69.3137C37.8501 68.1983 39.2715 66.776 40.1725 65.015L36.6115 63.193ZM33.9498 65.8962C32.7607 66.6146 31.0048 67.1539 28.5498 67.3934L28.9382 71.3745C31.7312 71.1021 34.1353 70.4574 36.0182 69.3198L33.9498 65.8962ZM14.6389 83.4235L10.7989 78.7675L7.71306 81.3125L11.5531 85.9685L14.6389 83.4235ZM9.256 82.04H27.16V78.04H9.256V82.04ZM27.16 82.04C28.914 82.04 30.5647 81.6088 31.8413 80.4854L29.1987 77.4826C28.8753 77.7672 28.286 78.04 27.16 78.04V82.04ZM31.8413 80.4854C33.1479 79.3356 33.72 77.7704 33.72 76.056H29.72C29.72 76.8375 29.4921 77.2244 29.1987 77.4826L31.8413 80.4854ZM33.72 76.056C33.72 74.2878 33.0788 72.7142 31.7209 71.5575L29.1271 74.6025C29.4972 74.9178 29.72 75.3281 29.72 76.056H33.72ZM31.7527 71.5852C30.384 70.3685 28.5456 69.928 26.584 69.928V73.928C28.0144 73.928 28.736 74.2555 29.0953 74.5748L31.7527 71.5852ZM26.584 69.928H11.8V73.928H26.584V69.928ZM13.8 71.928V65.112H9.8V71.928H13.8ZM11.8 67.112H25.24V63.112H11.8V67.112ZM25.24 67.112C26.8097 67.112 28.2572 66.6415 29.437 65.6092L26.803 62.5988C26.4468 62.9105 25.9743 63.112 25.24 63.112V67.112ZM29.4413 65.6054C30.7236 64.477 31.32 62.9594 31.32 61.272H27.32C27.32 61.9527 27.1164 62.323 26.7987 62.6026L29.4413 65.6054ZM31.32 61.272C31.32 59.7847 30.7722 58.4488 29.6538 57.4369L26.9702 60.4031C27.1958 60.6072 27.32 60.8393 27.32 61.272H31.32ZM29.6913 57.4717C28.5343 56.3698 27.0125 55.96 25.432 55.96V59.96C26.3475 59.96 26.7457 60.1902 26.9327 60.3683L29.6913 57.4717ZM25.432 55.96H9.304V59.96H25.432V55.96ZM10.8548 59.223L14.6468 54.567L11.5452 52.041L7.75324 56.697L10.8548 59.223ZM11.1214 53.6217L13.5694 68.8377L17.5186 68.2023L15.0706 52.9863L11.1214 53.6217ZM13.5665 68.2207L11.1185 84.3967L15.0735 84.9953L17.5215 68.8193L13.5665 68.2207ZM77.503 65.4H79.503V63.4H77.503V65.4ZM77.503 72.6V74.6H79.503V72.6H77.503ZM51.151 72.6H49.151V74.6H51.151V72.6ZM51.151 65.4V63.4H49.151V65.4H51.151ZM57.919 69L59.893 69.3214L59.9453 69L59.893 68.6786L57.919 69ZM55.567 83.448L54.0757 84.7807L56.8678 87.9051L57.541 83.7693L55.567 83.448ZM51.535 78.936V76.936H47.0656L50.0437 80.2687L51.535 78.936ZM79.087 78.936H81.087V76.936H79.087V78.936ZM79.087 87V89H81.087V87H79.087ZM45.631 87L43.6537 86.6995L43.304 89H45.631V87ZM48.367 69L50.3443 69.3005L50.39 69L50.3443 68.6994L48.367 69ZM45.631 51V49H43.304L43.6537 51.3005L45.631 51ZM78.847 51H80.847V49H78.847V51ZM78.847 59.064V61.064H80.847V59.064H78.847ZM51.535 59.064L50.0437 57.7313L47.0656 61.064H51.535V59.064ZM55.567 54.552L57.541 54.2306L56.8678 50.0949L54.0757 53.2193L55.567 54.552ZM75.503 65.4V72.6H79.503V65.4H75.503ZM77.503 70.6H51.151V74.6H77.503V70.6ZM53.151 72.6V65.4H49.151V72.6H53.151ZM51.151 67.4H77.503V63.4H51.151V67.4ZM55.945 68.6786L53.593 83.1266L57.541 83.7693L59.893 69.3214L55.945 68.6786ZM57.0583 82.1153L53.0263 77.6033L50.0437 80.2687L54.0757 84.7807L57.0583 82.1153ZM51.535 80.936H79.087V76.936H51.535V80.936ZM77.087 78.936V87H81.087V78.936H77.087ZM79.087 85H45.631V89H79.087V85ZM47.6083 87.3005L50.3443 69.3005L46.3897 68.6994L43.6537 86.6995L47.6083 87.3005ZM50.3443 68.6994L47.6083 50.6994L43.6537 51.3005L46.3897 69.3005L50.3443 68.6994ZM45.631 53H78.847V49H45.631V53ZM76.847 51V59.064H80.847V51H76.847ZM78.847 57.064H51.535V61.064H78.847V57.064ZM53.0263 60.3967L57.0583 55.8847L54.0757 53.2193L50.0437 57.7313L53.0263 60.3967ZM53.593 54.8733L55.945 69.3214L59.893 68.6786L57.541 54.2306L53.593 54.8733ZM91.1961 80.088H89.1961V82.088H91.1961V80.088ZM91.1961 72.072V70.072H89.1961V72.072H91.1961ZM116.012 72.072H118.012V70.072H116.012V72.072ZM116.012 80.088V82.088H118.012V80.088H116.012ZM110.348 51L112.169 50.1722L111.636 49H110.348V51ZM126.716 87V89H129.822L128.537 86.1722L126.716 87ZM116.108 87L114.272 87.7932L114.794 89H116.108V87ZM102.38 55.224V53.224H99.3374L100.544 56.0172L102.38 55.224ZM105.26 55.224L107.095 56.0195L108.307 53.224H105.26V55.224ZM91.4841 87V89H92.7969L93.3191 87.7955L91.4841 87ZM80.8761 87L79.0555 86.1722L77.7698 89H80.8761V87ZM97.2441 51V49H95.9564L95.4235 50.1722L97.2441 51ZM93.1961 80.088V72.072H89.1961V80.088H93.1961ZM91.1961 74.072H116.012V70.072H91.1961V74.072ZM114.012 72.072V80.088H118.012V72.072H114.012ZM116.012 78.088H91.1961V82.088H116.012V78.088ZM108.527 51.8278L124.895 87.8278L128.537 86.1722L112.169 50.1722L108.527 51.8278ZM126.716 85H116.108V89H126.716V85ZM117.944 86.2068L104.216 54.4308L100.544 56.0172L114.272 87.7932L117.944 86.2068ZM102.38 57.224H105.26V53.224H102.38V57.224ZM103.425 54.4285L89.6491 86.2045L93.3191 87.7955L107.095 56.0195L103.425 54.4285ZM91.4841 85H80.8761V89H91.4841V85ZM82.6968 87.8278L99.0648 51.8278L95.4235 50.1722L79.0555 86.1722L82.6968 87.8278ZM97.2441 53H110.348V49H97.2441V53ZM135.64 55.368V53.368H133.64V55.368H135.64ZM145.624 55.368H147.624V53.368H145.624V55.368ZM145.624 87V89H147.624V87H145.624ZM135.64 87H133.64V89H135.64V87ZM121.912 51V49H119.912V51H121.912ZM159.352 51H161.352V49H159.352V51ZM159.352 59.832V61.832H161.352V59.832H159.352ZM121.912 59.832H119.912V61.832H121.912V59.832ZM135.64 57.368H145.624V53.368H135.64V57.368ZM143.624 55.368V87H147.624V55.368H143.624ZM145.624 85H135.64V89H145.624V85ZM137.64 87V55.368H133.64V87H137.64ZM121.912 53H159.352V49H121.912V53ZM157.352 51V59.832H161.352V51H157.352ZM159.352 57.832H121.912V61.832H159.352V57.832ZM123.912 59.832V51H119.912V59.832H123.912ZM37.72 128.04L38.1181 130L41.1208 129.39L39.354 126.887L37.72 128.04ZM34.648 128.664H32.648V131.111L35.0461 130.624L34.648 128.664ZM34.648 99V97H32.648V99H34.648ZM44.296 99H46.296V97H44.296V99ZM44.296 135V137H46.296V135H44.296ZM31.768 135L30.1309 136.149L30.7282 137H31.768V135ZM10.984 105.384L10.5798 103.425L7.59786 104.041L9.34691 106.533L10.984 105.384ZM14.008 104.76H16.008V102.305L13.6038 102.801L14.008 104.76ZM14.008 135V137H16.008V135H14.008ZM4.36 135H2.36V137H4.36V135ZM4.36 99V97H2.36V99H4.36ZM17.224 99L18.858 97.8467L18.2604 97H17.224V99ZM37.3219 126.08L34.2499 126.704L35.0461 130.624L38.1181 130L37.3219 126.08ZM36.648 128.664V99H32.648V128.664H36.648ZM34.648 101H44.296V97H34.648V101ZM42.296 99V135H46.296V99H42.296ZM44.296 133H31.768V137H44.296V133ZM33.4051 133.851L12.6211 104.235L9.34691 106.533L30.1309 136.149L33.4051 133.851ZM11.3882 107.343L14.4122 106.719L13.6038 102.801L10.5798 103.425L11.3882 107.343ZM12.008 104.76V135H16.008V104.76H12.008ZM14.008 133H4.36V137H14.008V133ZM6.36 135V99H2.36V135H6.36ZM4.36 101H17.224V97H4.36V101ZM15.59 100.153L36.086 129.193L39.354 126.887L18.858 97.8467L15.59 100.153ZM59.5446 133.416L58.6646 135.212L58.6716 135.215L59.5446 133.416ZM52.0566 126.84L50.3606 127.9L50.3649 127.907L50.3693 127.914L52.0566 126.84ZM52.0566 107.16L50.3693 106.086L50.3649 106.093L50.3606 106.1L52.0566 107.16ZM59.5446 100.584L58.6716 98.7846L58.6646 98.788L59.5446 100.584ZM82.0086 100.584L81.1286 102.38L82.0086 100.584ZM89.4966 107.16L91.184 106.086L89.4966 107.16ZM89.4966 126.84L91.184 127.914L89.4966 126.84ZM82.0086 133.416L81.1286 131.62L82.0086 133.416ZM76.8246 125.688L77.6779 127.497L76.8246 125.688ZM80.7126 122.28L79.0208 121.213L79.0124 121.227L79.0042 121.24L80.7126 122.28ZM80.7126 111.72L79.0042 112.76L79.0124 112.773L79.0208 112.787L80.7126 111.72ZM76.8246 108.312L77.6779 106.503L76.8246 108.312ZM64.7766 108.312L63.9234 106.503L64.7766 108.312ZM60.8406 111.72L59.1488 110.653L60.8406 111.72ZM60.8406 122.28L59.1488 123.347L60.8406 122.28ZM64.7766 125.688L63.9234 127.497L64.7766 125.688ZM70.7766 133.768C66.7676 133.768 63.3317 133.03 60.4176 131.617L58.6716 135.215C62.2215 136.938 66.2736 137.768 70.7766 137.768V133.768ZM60.4247 131.62C57.5318 130.203 55.325 128.251 53.7439 125.766L50.3693 127.914C52.3723 131.061 55.1574 133.493 58.6646 135.212L60.4247 131.62ZM53.7526 125.78C52.2158 123.321 51.4166 120.418 51.4166 117H47.4166C47.4166 121.07 48.3775 124.727 50.3606 127.9L53.7526 125.78ZM51.4166 117C51.4166 113.582 52.2158 110.679 53.7526 108.22L50.3606 106.1C48.3775 109.273 47.4166 112.93 47.4166 117H51.4166ZM53.7439 108.234C55.325 105.749 57.5318 103.797 60.4247 102.38L58.6646 98.788C55.1574 100.507 52.3723 102.939 50.3693 106.086L53.7439 108.234ZM60.4176 102.383C63.3317 100.97 66.7676 100.232 70.7766 100.232V96.232C66.2736 96.232 62.2215 97.0624 58.6716 98.7846L60.4176 102.383ZM70.7766 100.232C74.8208 100.232 78.2527 100.971 81.1286 102.38L82.8887 98.788C79.3646 97.0612 75.3084 96.232 70.7766 96.232V100.232ZM81.1286 102.38C84.0214 103.797 86.2283 105.749 87.8093 108.234L91.184 106.086C89.181 102.939 86.3958 100.507 82.8887 98.788L81.1286 102.38ZM87.8093 108.234C89.3729 110.691 90.1846 113.589 90.1846 117H94.1846C94.1846 112.923 93.2043 109.261 91.184 106.086L87.8093 108.234ZM90.1846 117C90.1846 120.411 89.3729 123.309 87.8093 125.766L91.184 127.914C93.2043 124.739 94.1846 121.077 94.1846 117H90.1846ZM87.8093 125.766C86.2283 128.251 84.0214 130.203 81.1286 131.62L82.8887 135.212C86.3958 133.493 89.181 131.061 91.184 127.914L87.8093 125.766ZM81.1286 131.62C78.2527 133.029 74.8208 133.768 70.7766 133.768V137.768C75.3084 137.768 79.3646 136.939 82.8887 135.212L81.1286 131.62ZM70.7766 128.888C73.337 128.888 75.6578 128.45 77.6779 127.497L75.9714 123.879C74.5995 124.526 72.8882 124.888 70.7766 124.888V128.888ZM77.6779 127.497C79.6955 126.545 81.3034 125.156 82.421 123.32L79.0042 121.24C78.3298 122.348 77.3458 123.231 75.9714 123.879L77.6779 127.497ZM82.4045 123.347C83.5671 121.502 84.1046 119.358 84.1046 117H80.1046C80.1046 118.738 79.7141 120.114 79.0208 121.213L82.4045 123.347ZM84.1046 117C84.1046 114.642 83.5671 112.498 82.4045 110.653L79.0208 112.787C79.7141 113.886 80.1046 115.262 80.1046 117H84.1046ZM82.421 110.68C81.3034 108.844 79.6955 107.455 77.6779 106.503L75.9714 110.121C77.3458 110.769 78.3298 111.652 79.0042 112.76L82.421 110.68ZM77.6779 106.503C75.6578 105.55 73.337 105.112 70.7766 105.112V109.112C72.8882 109.112 74.5995 109.474 75.9714 110.121L77.6779 106.503ZM70.7766 105.112C68.2436 105.112 65.9401 105.552 63.9234 106.503L65.6299 110.121C67.0051 109.472 68.7016 109.112 70.7766 109.112V105.112ZM63.9234 106.503C61.9108 107.452 60.2958 108.834 59.1488 110.653L62.5325 112.787C63.2415 111.662 64.2505 110.772 65.6299 110.121L63.9234 106.503ZM59.1488 110.653C57.9861 112.498 57.4486 114.642 57.4486 117H61.4486C61.4486 115.262 61.8391 113.886 62.5325 112.787L59.1488 110.653ZM57.4486 117C57.4486 119.358 57.9861 121.502 59.1488 123.347L62.5325 121.213C61.8391 120.114 61.4486 118.738 61.4486 117H57.4486ZM59.1488 123.347C60.2958 125.166 61.9108 126.548 63.9234 127.497L65.6299 123.879C64.2505 123.228 63.2415 122.338 62.5325 121.213L59.1488 123.347ZM63.9234 127.497C65.9401 128.448 68.2436 128.888 70.7766 128.888V124.888C68.7016 124.888 67.0051 124.528 65.6299 123.879L63.9234 127.497ZM97.3131 99V97H95.3131V99H97.3131ZM107.249 99H109.249V97H107.249V99ZM107.249 135V137H109.249V135H107.249ZM97.3131 135H95.3131V137H97.3131V135ZM97.3131 101H107.249V97H97.3131V101ZM105.249 99V135H109.249V99H105.249ZM107.249 133H97.3131V137H107.249V133ZM99.3131 135V99H95.3131V135H99.3131ZM112.322 123.192V121.192H110.243L110.323 123.269L112.322 123.192ZM122.45 123.192L124.424 122.874L124.153 121.192H122.45V123.192ZM123.842 125.784L125.226 124.34V124.34L123.842 125.784ZM126.914 127.512L126.296 129.414L126.324 129.423L126.352 129.431L126.914 127.512ZM137.282 127.176L138.075 129.012L138.092 129.005L138.109 128.997L137.282 127.176ZM138.194 122.232L139.272 120.547L138.194 122.232ZM133.586 121.128L133.782 119.138L133.771 119.137L133.586 121.128ZM126.866 120.504L127.051 118.513L127.046 118.512L126.866 120.504ZM116.066 117.144L114.803 118.695L114.81 118.7L114.816 118.706L116.066 117.144ZM114.866 103.464L113.343 102.167L113.336 102.175L113.329 102.184L114.866 103.464ZM121.01 99.576L121.635 101.476L121.642 101.473L121.649 101.471L121.01 99.576ZM139.49 99.72L138.797 101.596L138.807 101.6L138.817 101.603L139.49 99.72ZM145.874 103.848L144.369 105.165L144.375 105.173L144.382 105.18L145.874 103.848ZM148.466 110.088V112.088H150.577L150.463 109.98L148.466 110.088ZM138.386 110.088L136.407 110.381L136.66 112.088H138.386V110.088ZM137.138 107.88L135.758 109.328L135.794 109.362L135.831 109.394L137.138 107.88ZM134.354 106.44L133.784 108.357L133.808 108.364L133.832 108.371L134.354 106.44ZM124.754 106.824L125.558 108.655L125.576 108.647L125.595 108.639L124.754 106.824ZM123.938 111.432L122.828 113.096L122.844 113.106L122.86 113.117L123.938 111.432ZM128.21 112.488L128.41 110.498L128.396 110.497L128.21 112.488ZM135.362 113.208L135.161 115.198L135.169 115.199L135.176 115.199L135.362 113.208ZM143.57 114.888L142.842 116.751L142.855 116.756L142.868 116.761L143.57 114.888ZM148.034 118.104L149.692 116.986L148.034 118.104ZM147.17 129.864L148.724 131.123L148.729 131.117L148.734 131.11L147.17 129.864ZM140.834 134.232L141.538 136.104L141.548 136.1L141.558 136.096L140.834 134.232ZM121.49 134.232L120.788 136.105L120.8 136.109L120.813 136.114L121.49 134.232ZM114.866 129.816L113.329 131.096L113.335 131.103L113.34 131.109L114.866 129.816ZM112.322 125.192H122.45V121.192H112.322V125.192ZM120.475 123.51C120.709 124.958 121.396 126.21 122.458 127.228L125.226 124.34C124.752 123.886 124.511 123.41 124.424 122.874L120.475 123.51ZM122.458 127.228C123.493 128.22 124.803 128.929 126.296 129.414L127.532 125.61C126.465 125.263 125.726 124.82 125.226 124.34L122.458 127.228ZM126.352 129.431C127.89 129.882 129.623 130.088 131.522 130.088V126.088C129.9 126.088 128.561 125.91 127.476 125.593L126.352 129.431ZM131.522 130.088C134.085 130.088 136.313 129.773 138.075 129.012L136.489 125.34C135.435 125.795 133.823 126.088 131.522 126.088V130.088ZM138.109 128.997C139.02 128.583 139.852 128.01 140.459 127.209C141.087 126.381 141.394 125.416 141.394 124.392H137.394C137.394 124.584 137.348 124.691 137.272 124.791C137.176 124.918 136.951 125.129 136.454 125.355L138.109 128.997ZM141.394 124.392C141.394 122.763 140.63 121.417 139.272 120.547L137.116 123.917C137.28 124.022 137.329 124.098 137.345 124.127C137.36 124.154 137.394 124.224 137.394 124.392H141.394ZM139.272 120.547C138.6 120.118 137.769 119.833 136.908 119.627C136.021 119.415 134.973 119.255 133.782 119.138L133.39 123.118C134.471 123.225 135.326 123.361 135.976 123.517C136.651 123.679 136.987 123.834 137.116 123.917L139.272 120.547ZM133.771 119.137L127.051 118.513L126.681 122.495L133.401 123.119L133.771 119.137ZM127.046 118.512C122.223 118.076 119.097 117.007 117.315 115.582L114.816 118.706C117.515 120.865 121.589 122.036 126.686 122.496L127.046 118.512ZM117.329 115.593C115.588 114.176 114.706 112.314 114.706 109.8H110.706C110.706 113.43 112.064 116.464 114.803 118.695L117.329 115.593ZM114.706 109.8C114.706 107.717 115.295 106.073 116.402 104.744L113.329 102.184C111.557 104.311 110.706 106.891 110.706 109.8H114.706ZM116.388 104.761C117.575 103.367 119.284 102.25 121.635 101.476L120.384 97.6763C117.487 98.6302 115.1 100.105 113.343 102.167L116.388 104.761ZM121.649 101.471C124.054 100.66 126.918 100.232 130.274 100.232V96.232C126.589 96.232 123.277 96.7003 120.37 97.6809L121.649 101.471ZM130.274 100.232C133.541 100.232 136.371 100.701 138.797 101.596L140.182 97.8437C137.232 96.755 133.919 96.232 130.274 96.232V100.232ZM138.817 101.603C141.248 102.472 143.066 103.676 144.369 105.165L147.379 102.531C145.546 100.436 143.108 98.8885 140.162 97.8365L138.817 101.603ZM144.382 105.18C145.684 106.638 146.366 108.288 146.469 110.196L150.463 109.98C150.31 107.152 149.264 104.642 147.366 102.516L144.382 105.18ZM148.466 108.088H138.386V112.088H148.466V108.088ZM140.364 109.795C140.161 108.424 139.486 107.266 138.445 106.366L135.831 109.394C136.197 109.71 136.354 110.024 136.407 110.381L140.364 109.795ZM138.517 106.432C137.539 105.5 136.281 104.889 134.876 104.509L133.832 108.371C134.794 108.631 135.393 108.98 135.758 109.328L138.517 106.432ZM134.924 104.523C133.503 104.101 131.876 103.912 130.082 103.912V107.912C131.615 107.912 132.836 108.075 133.784 108.357L134.924 104.523ZM130.082 103.912C127.695 103.912 125.593 104.231 123.913 105.009L125.595 108.639C126.538 108.201 127.989 107.912 130.082 107.912V103.912ZM123.95 104.993C123.079 105.375 122.274 105.918 121.685 106.695C121.076 107.497 120.786 108.432 120.786 109.416H124.786C124.786 109.248 124.824 109.175 124.871 109.113C124.937 109.026 125.117 108.849 125.558 108.655L123.95 104.993ZM120.786 109.416C120.786 110.998 121.576 112.261 122.828 113.096L125.047 109.768C124.872 109.651 124.821 109.571 124.81 109.552C124.804 109.54 124.786 109.511 124.786 109.416H120.786ZM122.86 113.117C124.096 113.908 125.945 114.284 128.023 114.479L128.396 110.497C126.378 110.308 125.38 109.98 125.016 109.747L122.86 113.117ZM128.009 114.478L135.161 115.198L135.562 111.218L128.41 110.498L128.009 114.478ZM135.176 115.199C138.506 115.511 141.037 116.046 142.842 116.751L144.297 113.025C142.007 112.13 139.066 111.545 135.548 111.217L135.176 115.199ZM142.868 116.761C144.649 117.429 145.744 118.286 146.376 119.222L149.692 116.986C148.468 115.17 146.587 113.883 144.272 113.015L142.868 116.761ZM146.376 119.222C147.034 120.198 147.426 121.497 147.426 123.24H151.426C151.426 120.887 150.89 118.762 149.692 116.986L146.376 119.222ZM147.426 123.24C147.426 125.338 146.813 127.102 145.605 128.618L148.734 131.11C150.534 128.85 151.426 126.198 151.426 123.24H147.426ZM145.616 128.605C144.375 130.136 142.577 131.41 140.11 132.368L141.558 136.096C144.531 134.942 146.957 133.304 148.724 131.123L145.616 128.605ZM140.129 132.36C137.682 133.282 134.762 133.768 131.33 133.768V137.768C135.13 137.768 138.546 137.23 141.538 136.104L140.129 132.36ZM131.33 133.768C127.798 133.768 124.755 133.281 122.166 132.35L120.813 136.114C123.921 137.232 127.438 137.768 131.33 137.768V133.768ZM122.192 132.359C119.627 131.398 117.728 130.1 116.392 128.523L113.34 131.109C115.203 133.308 117.72 134.954 120.788 136.105L122.192 132.359ZM116.402 128.536C115.085 126.955 114.399 125.17 114.32 123.115L110.323 123.269C110.436 126.206 111.447 128.837 113.329 131.096L116.402 128.536ZM185.034 113.4H187.034V111.4H185.034V113.4ZM185.034 120.6V122.6H187.034V120.6H185.034ZM158.682 120.6H156.682V122.6H158.682V120.6ZM158.682 113.4V111.4H156.682V113.4H158.682ZM165.45 117L167.424 117.321L167.477 117L167.424 116.679L165.45 117ZM163.098 131.448L161.607 132.781L164.399 135.905L165.072 131.769L163.098 131.448ZM159.066 126.936V124.936H154.597L157.575 128.269L159.066 126.936ZM186.618 126.936H188.618V124.936H186.618V126.936ZM186.618 135V137H188.618V135H186.618ZM153.162 135L151.185 134.699L150.835 137H153.162V135ZM155.898 117L157.876 117.301L157.921 117L157.876 116.699L155.898 117ZM153.162 99V97H150.835L151.185 99.3005L153.162 99ZM186.378 99H188.378V97H186.378V99ZM186.378 107.064V109.064H188.378V107.064H186.378ZM159.066 107.064L157.575 105.731L154.597 109.064H159.066V107.064ZM163.098 102.552L165.072 102.231L164.399 98.0949L161.607 101.219L163.098 102.552ZM183.034 113.4V120.6H187.034V113.4H183.034ZM185.034 118.6H158.682V122.6H185.034V118.6ZM160.682 120.6V113.4H156.682V120.6H160.682ZM158.682 115.4H185.034V111.4H158.682V115.4ZM163.476 116.679L161.124 131.127L165.072 131.769L167.424 117.321L163.476 116.679ZM164.59 130.115L160.558 125.603L157.575 128.269L161.607 132.781L164.59 130.115ZM159.066 128.936H186.618V124.936H159.066V128.936ZM184.618 126.936V135H188.618V126.936H184.618ZM186.618 133H153.162V137H186.618V133ZM155.14 135.301L157.876 117.301L153.921 116.699L151.185 134.699L155.14 135.301ZM157.876 116.699L155.14 98.6994L151.185 99.3005L153.921 117.301L157.876 116.699ZM153.162 101H186.378V97H153.162V101ZM184.378 99V107.064H188.378V99H184.378ZM186.378 105.064H159.066V109.064H186.378V105.064ZM160.558 108.397L164.59 103.885L161.607 101.219L157.575 105.731L160.558 108.397ZM161.124 102.873L163.476 117.321L167.424 116.679L165.072 102.231L161.124 102.873Z" fill="#A99783" mask="url(#path-1-outside-1_2_20)"/>
</g>
</svg>
